<svg height="30" viewBox="0 0 30 30" width="30" xmlns="http://www.w3.org/2000/svg"><path d="M21.233 10.054a2.19 2.19 0 0 0-.97.48 2.166 2.166 0 0 0-.636.957c-.067.207-.03.42-.035.63-.244-.132-.8-.157-1.146-.064-.442.103-.88.307-1.217.65-.504.51-.637.94-.6 1.508-.16-.072-.31-.164-.49-.19a1.92 1.92 0 0 0-.87.067 2.34 2.34 0 0 0-.732.392c-.295.23-.547.526-.715.88-.12.25-.13.53-.15.807L11.43 14.13c-.286-.26-.6-.544-.994-.767-.396-.225-.86-.378-1.357-.362a2.135 2.135 0 0 0-1.398.578c-.38.362-.608.853-.646 1.37-.04.515.11 1.007.357 1.42.246.41.567.72.855.995l8.008 7.638h-1.752c-.24 0-.506 0-.795.053-.29.052-.58.156-.844.332a1.935 1.935 0 0 0-.861 1.615c0 .317.076.632.227.916.152.284.372.522.636.698.263.177.555.28.843.332.288.053.555.053.794.053h8c.686 0 .645-1 0-1h-8a3.6 3.6 0 0 1-.617-.037 1.25 1.25 0 0 1-.467-.178.944.944 0 0 1-.306-1.232.944.944 0 0 1 .306-.338c.13-.086.29-.146.467-.178a3.6 3.6 0 0 1 .617-.037h3a.5.5 0 0 0 .346-.86l-8.91-8.5c-.28-.27-.53-.52-.688-.786a1.439 1.439 0 0 1-.218-.832c.02-.268.145-.538.336-.72.19-.18.468-.293.74-.302.267-.008.56.08.832.233.272.154.535.383.816.638 1.47 1.333 2.942 2.665 4.41 4 .453.412 1.122-.308.696-.714l-.506-.51c-.21-.213-.397-.407-.524-.606a1.42 1.42 0 0 1-.224-.627 1.22 1.22 0 0 1 .115-.627 1.49 1.49 0 0 1 .842-.744.951.951 0 0 1 .422-.035c.134.022.276.077.405.16.13.086.264.214.416.364l1.34 1.323.003.002c.472.45 1.15-.186.7-.65l-.495-.56c-.245-.276-.486-.504-.62-.754a1.308 1.308 0 0 1-.16-.783c.03-.253.16-.507.35-.692.192-.186.458-.322.746-.39.384-.102.73.082.977.327l1 1 .5.5c.472.452 1.16-.236.708-.707l-.5-.5a4.835 4.835 0 0 1-.533-.6 1.694 1.694 0 0 1-.28-.62c-.042-.21-.03-.433.034-.628a1.149 1.149 0 0 1 .86-.769c.19-.04.4-.034.6.02.198.052.4.154.585.29.187.136.368.315.565.512l5.948 5.978c.47.49 1.198-.236.707-.707L23.9 11.148c-.2-.2-.42-.417-.687-.612a2.799 2.799 0 0 0-.914-.45 2.315 2.315 0 0 0-1.067-.032zm-7.73 1.95a.5.5 0 0 0 .5-.5v-3a.5.5 0 0 0-.5-.5h-3c-.647 0-.674 1 0 1h1.79l-2.135 2.14a.5.5 0 0 0 .346.86c.13 0 .27-.062.36-.155l2.14-2.147v1.8a.487.487 0 0 0 .5.5zm-11 3a.502.502 0 0 0-.5.5v3c0 .275.226.5.5.5h3c.65 0 .677-1 0-1H3.716l2.136-2.14a.497.497 0 0 0-.346-.86.54.54 0 0 0-.36.153l-2.14 2.146v-1.8a.488.488 0 0 0-.5-.5zm6.5 10a1 1 0 1 1-2 0 1 1 0 0 1 2 0zm-2.5-22h3a.499.499 0 1 1 0 1h-3a.5.5 0 0 1 0-1zm-5-2c-.82 0-1.5.677-1.5 1.5v24c0 .822.68 1.5 1.5 1.5h9c.677.01.677-1.01 0-1h-9a.49.49 0 0 1-.5-.5v-24c0-.286.216-.5.5-.5h13c.287 0 .5.214.5.5v9c-.008.675 1.01.675 1 0v-9c0-.823-.676-1.5-1.5-1.5z"/></svg>