<svg height="30" viewBox="0 0 30 30" width="30" xmlns="http://www.w3.org/2000/svg"><path d="M27 19c-.5-.002-.697.64-.277.912l1.5 1c.53.366 1.102-.48.554-.832l-1.5-1A.475.475 0 0 0 27 19zm-3.5 4c-.402.002-.628.466-.416.773l1 1.5c.367.57 1.216.003.832-.554l-1-1.5a.481.481 0 0 0-.416-.22zm5-15a.504.504 0 0 0-.277.084l-1.5 1c-.54.347.032 1.192.554.832l1.5-1C29.174 8.66 29.004 8 28.5 8zm-4-4.5a.498.498 0 0 0-.416.223l-1 1.5c-.36.52.48 1.102.832.554l1-1.5A.492.492 0 0 0 24.5 3.5zm-6.5 23v-2a.499.499 0 1 1 1 0v2a.499.499 0 1 1-1 0zm0-22v-2a.499.499 0 1 1 1 0v2a.499.499 0 1 1-1 0zm9.5 9.5h2a.499.499 0 1 1 0 1h-2a.499.499 0 1 1 0-1zm-9.973-7c-.695 0-.695 1 0 1C21.107 8 24 10.903 24 14.5S21.107 21 17.527 21c-.68 0-.703 1 0 1C21.65 22 25 18.635 25 14.5S21.65 7 17.527 7zM9 25a1 1 0 1 1-2 0 1 1 0 0 1 2 0zM6.5 4h3a.499.499 0 1 1 0 1h-3a.499.499 0 1 1 0-1zm-5-2C.678 2 0 2.678 0 3.5v23c0 .822.678 1.5 1.5 1.5h13c.822 0 1.5-.678 1.5-1.5v-23c0-.822-.678-1.5-1.5-1.5zm0 1h13c.286 0 .5.214.5.5v23c0 .286-.214.5-.5.5h-13a.488.488 0 0 1-.5-.5v-23c0-.286.214-.5.5-.5z"/></svg>